<svg width="15" height="15" viewBox="0 0 15 15" fill="none" xmlns="http://www.w3.org/2000/svg">
<path d="M13.125 5.625C13.2908 5.625 13.4497 5.69085 13.5669 5.80806C13.6842 5.92527 13.75 6.08424 13.75 6.25C13.75 6.41576 13.6842 6.57473 13.5669 6.69194C13.4497 6.80915 13.2908 6.875 13.125 6.875H10.3313L10.25 7.63125L8.875 10.7188C8.75 11.0312 8.41875 11.25 8.0375 11.25H5.3125C4.8125 11.25 4.375 10.7937 4.375 10.3125V6.25C4.375 6.00625 4.475 5.7875 4.64375 5.625L7.26875 2.5625L7.75 3.025C7.875 3.14375 7.95 3.30625 7.95 3.4875L7.93125 3.625L6.875 5.625H13.125ZM1.25 11.25V6.25H3.125V11.25H1.25Z" fill="#FFC700"/>
</svg>
