<svg width="158" height="40" viewBox="0 0 158 40" fill="none" xmlns="http://www.w3.org/2000/svg">
<path d="M41.1009 27V12.4545H51.0298V15.3097H44.6165V18.2926H50.3977V21.1548H44.6165V27H41.1009ZM52.8001 27V16.0909H56.2731V27H52.8001ZM54.5401 14.8196C54.0524 14.8196 53.6334 14.6586 53.283 14.3366C52.9326 14.0099 52.7575 13.617 52.7575 13.1577C52.7575 12.7031 52.9326 12.3149 53.283 11.9929C53.6334 11.6662 54.0524 11.5028 54.5401 11.5028C55.0326 11.5028 55.4516 11.6662 55.7972 11.9929C56.1476 12.3149 56.3228 12.7031 56.3228 13.1577C56.3228 13.617 56.1476 14.0099 55.7972 14.3366C55.4516 14.6586 55.0326 14.8196 54.5401 14.8196ZM61.9567 12.4545V27H58.4837V12.4545H61.9567ZM69.2667 27.206C68.1256 27.206 67.1407 26.9811 66.3121 26.5312C65.4883 26.0767 64.8538 25.4304 64.4087 24.5923C63.9684 23.7495 63.7482 22.7481 63.7482 21.5881C63.7482 20.4612 63.9708 19.4763 64.4158 18.6335C64.8609 17.786 65.4883 17.1278 66.2979 16.6591C67.1076 16.1856 68.0617 15.9489 69.1602 15.9489C69.9367 15.9489 70.6469 16.0696 71.2908 16.3111C71.9348 16.5526 72.4911 16.91 72.9599 17.3835C73.4286 17.857 73.7932 18.4418 74.0536 19.1378C74.314 19.8291 74.4442 20.6222 74.4442 21.517V22.3835H64.9627V20.3665H71.2127C71.208 19.9972 71.1204 19.6681 70.9499 19.3793C70.7795 19.0904 70.5451 18.8655 70.2468 18.7045C69.9532 18.5388 69.6147 18.456 69.2312 18.456C68.8429 18.456 68.4949 18.5436 68.1871 18.7188C67.8794 18.8892 67.6355 19.1236 67.4556 19.4219C67.2757 19.7154 67.181 20.0492 67.1715 20.4233V22.4759C67.1715 22.9209 67.2591 23.3116 67.4343 23.6477C67.6095 23.9792 67.8581 24.2372 68.18 24.4219C68.502 24.6065 68.8855 24.6989 69.3306 24.6989C69.6384 24.6989 69.9177 24.6562 70.1687 24.571C70.4196 24.4858 70.6351 24.3603 70.815 24.1946C70.9949 24.0289 71.1299 23.8253 71.2198 23.5838L74.4087 23.6761C74.2762 24.3911 73.985 25.0137 73.5352 25.544C73.0901 26.0696 72.5053 26.4792 71.7809 26.7727C71.0565 27.0616 70.2184 27.206 69.2667 27.206ZM85.7422 19.4219L82.5533 19.5071C82.5201 19.2798 82.4302 19.0786 82.2834 18.9034C82.1366 18.7235 81.9448 18.5838 81.7081 18.4844C81.4761 18.3802 81.2062 18.3281 80.8984 18.3281C80.496 18.3281 80.1527 18.4086 79.8686 18.5696C79.5893 18.7306 79.4519 18.9484 79.4567 19.223C79.4519 19.4361 79.5372 19.6207 79.7124 19.777C79.8923 19.9332 80.2119 20.0587 80.6712 20.1534L82.7734 20.5511C83.8625 20.7595 84.6721 21.1051 85.2024 21.5881C85.7375 22.071 86.0073 22.7102 86.0121 23.5057C86.0073 24.2538 85.7848 24.9048 85.3445 25.4588C84.9089 26.0128 84.3123 26.4437 83.5547 26.7514C82.7971 27.0545 81.9306 27.206 80.9553 27.206C79.3975 27.206 78.1688 26.8864 77.2692 26.2472C76.3743 25.6032 75.8629 24.7415 75.7351 23.6619L79.1655 23.5767C79.2412 23.9744 79.4377 24.2775 79.755 24.4858C80.0722 24.6941 80.477 24.7983 80.9695 24.7983C81.4145 24.7983 81.7768 24.7154 82.0561 24.5497C82.3355 24.384 82.4775 24.1638 82.4822 23.8892C82.4775 23.643 82.3686 23.4465 82.1555 23.2997C81.9425 23.1482 81.6087 23.0298 81.1541 22.9446L79.2507 22.5824C78.157 22.3835 77.3426 22.0166 76.8075 21.4815C76.2725 20.9418 76.0073 20.2552 76.0121 19.4219C76.0073 18.6927 76.2015 18.0701 76.5945 17.554C76.9875 17.0331 77.5462 16.6354 78.2706 16.3608C78.995 16.0862 79.8497 15.9489 80.8345 15.9489C82.3118 15.9489 83.4766 16.259 84.3288 16.8793C85.1811 17.4948 85.6522 18.3423 85.7422 19.4219ZM87.6935 27V24.4716L92.9989 19.8267C93.3967 19.4669 93.7352 19.1378 94.0146 18.8395C94.2939 18.5365 94.507 18.2334 94.6538 17.9304C94.8005 17.6226 94.8739 17.2888 94.8739 16.929C94.8739 16.5265 94.7863 16.1832 94.6112 15.8991C94.436 15.6103 94.1945 15.3878 93.8867 15.2315C93.579 15.0753 93.2262 14.9972 92.8285 14.9972C92.426 14.9972 92.0733 15.08 91.7702 15.2457C91.4672 15.4067 91.2305 15.6411 91.06 15.9489C90.8943 16.2566 90.8114 16.6307 90.8114 17.071H87.4805C87.4805 16.0814 87.703 15.2268 88.1481 14.5071C88.5932 13.7874 89.2182 13.2334 90.0231 12.8452C90.8327 12.4522 91.7726 12.2557 92.8427 12.2557C93.9459 12.2557 94.9047 12.4403 95.7191 12.8097C96.5335 13.179 97.1632 13.6951 97.6083 14.358C98.0581 15.0161 98.283 15.7808 98.283 16.652C98.283 17.206 98.1718 17.7552 97.9492 18.2997C97.7267 18.8442 97.3266 19.4455 96.7489 20.1037C96.176 20.7618 95.3616 21.5502 94.3058 22.4688L92.5657 24.0739V24.1662H98.4606V27H87.6935ZM108.338 16.8153C108.291 16.2945 108.08 15.8897 107.706 15.6009C107.337 15.3073 106.809 15.1605 106.122 15.1605C105.668 15.1605 105.289 15.2197 104.986 15.3381C104.683 15.4564 104.455 15.6198 104.304 15.8281C104.152 16.0317 104.074 16.2661 104.07 16.5312C104.06 16.7491 104.103 16.9408 104.197 17.1065C104.297 17.2723 104.439 17.419 104.624 17.5469C104.813 17.67 105.04 17.7789 105.305 17.8736C105.571 17.9683 105.869 18.0511 106.2 18.1222L107.45 18.4062C108.17 18.5625 108.804 18.7708 109.354 19.0312C109.908 19.2917 110.372 19.6018 110.746 19.9616C111.125 20.3215 111.411 20.7358 111.605 21.2045C111.799 21.6733 111.899 22.1989 111.903 22.7812C111.899 23.6998 111.667 24.4882 111.207 25.1463C110.748 25.8045 110.088 26.3087 109.226 26.6591C108.369 27.0095 107.334 27.1847 106.122 27.1847C104.905 27.1847 103.845 27.0024 102.94 26.6378C102.036 26.2732 101.333 25.7192 100.831 24.9759C100.329 24.2325 100.071 23.2926 100.057 22.1562H103.423C103.452 22.625 103.577 23.0156 103.8 23.3281C104.022 23.6406 104.328 23.8774 104.716 24.0384C105.109 24.1993 105.563 24.2798 106.08 24.2798C106.553 24.2798 106.955 24.2159 107.287 24.0881C107.623 23.9602 107.881 23.7827 108.061 23.5554C108.241 23.3281 108.333 23.0677 108.338 22.7741C108.333 22.4995 108.248 22.2652 108.082 22.071C107.917 21.8722 107.661 21.7017 107.315 21.5597C106.974 21.4129 106.539 21.2779 106.009 21.1548L104.489 20.7997C103.229 20.5109 102.237 20.0445 101.513 19.4006C100.788 18.7519 100.429 17.8759 100.433 16.7727C100.429 15.8731 100.67 15.0848 101.158 14.4077C101.645 13.7306 102.32 13.2027 103.182 12.8239C104.044 12.4451 105.026 12.2557 106.129 12.2557C107.256 12.2557 108.234 12.4474 109.062 12.831C109.896 13.2098 110.542 13.7424 111.001 14.429C111.461 15.1155 111.695 15.911 111.705 16.8153H108.338ZM117.152 20.7784V27H113.679V12.4545H117.038V18.0938H117.159C117.405 17.4214 117.808 16.8958 118.366 16.517C118.93 16.1383 119.619 15.9489 120.433 15.9489C121.2 15.9489 121.868 16.1193 122.436 16.4602C123.004 16.7964 123.445 17.2723 123.757 17.8878C124.074 18.5033 124.231 19.223 124.226 20.0469V27H120.753V20.7287C120.758 20.1226 120.606 19.6491 120.298 19.3082C119.991 18.9673 119.557 18.7969 118.999 18.7969C118.634 18.7969 118.312 18.8774 118.033 19.0384C117.758 19.1946 117.543 19.4195 117.386 19.7131C117.235 20.0066 117.157 20.3617 117.152 20.7784ZM131.493 27.206C130.352 27.206 129.367 26.9811 128.539 26.5312C127.715 26.0767 127.08 25.4304 126.635 24.5923C126.195 23.7495 125.975 22.7481 125.975 21.5881C125.975 20.4612 126.197 19.4763 126.642 18.6335C127.087 17.786 127.715 17.1278 128.525 16.6591C129.334 16.1856 130.288 15.9489 131.387 15.9489C132.163 15.9489 132.873 16.0696 133.517 16.3111C134.161 16.5526 134.718 16.91 135.186 17.3835C135.655 17.857 136.02 18.4418 136.28 19.1378C136.541 19.8291 136.671 20.6222 136.671 21.517V22.3835H127.189V20.3665H133.439C133.435 19.9972 133.347 19.6681 133.176 19.3793C133.006 19.0904 132.772 18.8655 132.473 18.7045C132.18 18.5388 131.841 18.456 131.458 18.456C131.069 18.456 130.721 18.5436 130.414 18.7188C130.106 18.8892 129.862 19.1236 129.682 19.4219C129.502 19.7154 129.408 20.0492 129.398 20.4233V22.4759C129.398 22.9209 129.486 23.3116 129.661 23.6477C129.836 23.9792 130.085 24.2372 130.407 24.4219C130.729 24.6065 131.112 24.6989 131.557 24.6989C131.865 24.6989 132.144 24.6562 132.395 24.571C132.646 24.4858 132.862 24.3603 133.042 24.1946C133.221 24.0289 133.356 23.8253 133.446 23.5838L136.635 23.6761C136.503 24.3911 136.212 25.0137 135.762 25.544C135.317 26.0696 134.732 26.4792 134.007 26.7727C133.283 27.0616 132.445 27.206 131.493 27.206ZM143.544 27.206C142.403 27.206 141.418 26.9811 140.589 26.5312C139.766 26.0767 139.131 25.4304 138.686 24.5923C138.246 23.7495 138.026 22.7481 138.026 21.5881C138.026 20.4612 138.248 19.4763 138.693 18.6335C139.138 17.786 139.766 17.1278 140.575 16.6591C141.385 16.1856 142.339 15.9489 143.438 15.9489C144.214 15.9489 144.924 16.0696 145.568 16.3111C146.212 16.5526 146.768 16.91 147.237 17.3835C147.706 17.857 148.071 18.4418 148.331 19.1378C148.591 19.8291 148.722 20.6222 148.722 21.517V22.3835H139.24V20.3665H145.49C145.485 19.9972 145.398 19.6681 145.227 19.3793C145.057 19.0904 144.822 18.8655 144.524 18.7045C144.231 18.5388 143.892 18.456 143.509 18.456C143.12 18.456 142.772 18.5436 142.464 18.7188C142.157 18.8892 141.913 19.1236 141.733 19.4219C141.553 19.7154 141.458 20.0492 141.449 20.4233V22.4759C141.449 22.9209 141.536 23.3116 141.712 23.6477C141.887 23.9792 142.135 24.2372 142.457 24.4219C142.779 24.6065 143.163 24.6989 143.608 24.6989C143.916 24.6989 144.195 24.6562 144.446 24.571C144.697 24.4858 144.912 24.3603 145.092 24.1946C145.272 24.0289 145.407 23.8253 145.497 23.5838L148.686 23.6761C148.554 24.3911 148.262 25.0137 147.812 25.544C147.367 26.0696 146.783 26.4792 146.058 26.7727C145.334 27.0616 144.496 27.206 143.544 27.206ZM156.653 16.0909V18.6477H149.771V16.0909H156.653ZM151.213 13.4773H154.686V23.5696C154.686 23.7827 154.719 23.9555 154.785 24.0881C154.856 24.2159 154.958 24.3082 155.091 24.3651C155.223 24.4171 155.382 24.4432 155.566 24.4432C155.699 24.4432 155.839 24.4313 155.985 24.4077C156.137 24.3793 156.251 24.3556 156.326 24.3366L156.852 26.8438C156.686 26.8911 156.452 26.9503 156.149 27.0213C155.85 27.0923 155.493 27.1373 155.076 27.1562C154.262 27.1941 153.564 27.0994 152.981 26.8722C152.404 26.6402 151.961 26.2803 151.653 25.7926C151.35 25.3049 151.203 24.6918 151.213 23.9531V13.4773Z" fill="white"/>
<path d="M33.3844 10.3656L27.1344 4.11563C27.0182 3.99958 26.8803 3.90756 26.7286 3.84483C26.5768 3.78209 26.4142 3.74987 26.25 3.75H13.75C13.087 3.75 12.4511 4.01339 11.9822 4.48223C11.5134 4.95107 11.25 5.58696 11.25 6.25V8.75H8.75C8.08696 8.75 7.45107 9.01339 6.98223 9.48223C6.51339 9.95107 6.25 10.587 6.25 11.25V33.75C6.25 34.413 6.51339 35.0489 6.98223 35.5178C7.45107 35.9866 8.08696 36.25 8.75 36.25H26.25C26.913 36.25 27.5489 35.9866 28.0178 35.5178C28.4866 35.0489 28.75 34.413 28.75 33.75V31.25H31.25C31.913 31.25 32.5489 30.9866 33.0178 30.5178C33.4866 30.0489 33.75 29.413 33.75 28.75V11.25C33.7501 11.0858 33.7179 10.9232 33.6552 10.7714C33.5924 10.6197 33.5004 10.4818 33.3844 10.3656ZM26.25 33.75H8.75V11.25H20.7328L26.25 16.7672V33.75ZM31.25 28.75H28.75V16.25C28.7501 16.0858 28.7179 15.9232 28.6552 15.7714C28.5924 15.6197 28.5004 15.4818 28.3844 15.3656L22.1344 9.11563C22.0182 8.99958 21.8803 8.90757 21.7286 8.84483C21.5768 8.78209 21.4142 8.74987 21.25 8.75H13.75V6.25H25.7328L31.25 11.7672V28.75ZM22.5 23.75C22.5 24.0815 22.3683 24.3995 22.1339 24.6339C21.8995 24.8683 21.5815 25 21.25 25H13.75C13.4185 25 13.1005 24.8683 12.8661 24.6339C12.6317 24.3995 12.5 24.0815 12.5 23.75C12.5 23.4185 12.6317 23.1005 12.8661 22.8661C13.1005 22.6317 13.4185 22.5 13.75 22.5H21.25C21.5815 22.5 21.8995 22.6317 22.1339 22.8661C22.3683 23.1005 22.5 23.4185 22.5 23.75ZM22.5 28.75C22.5 29.0815 22.3683 29.3995 22.1339 29.6339C21.8995 29.8683 21.5815 30 21.25 30H13.75C13.4185 30 13.1005 29.8683 12.8661 29.6339C12.6317 29.3995 12.5 29.0815 12.5 28.75C12.5 28.4185 12.6317 28.1005 12.8661 27.8661C13.1005 27.6317 13.4185 27.5 13.75 27.5H21.25C21.5815 27.5 21.8995 27.6317 22.1339 27.8661C22.3683 28.1005 22.5 28.4185 22.5 28.75Z" fill="#63D471"/>
</svg>
